<svg width="74" height="35" viewBox="0 0 74 35" fill="none" xmlns="http://www.w3.org/2000/svg">
<path d="M44.8138 34.5351L49.8138 10.7369C47.7288 9.5527 45.7315 8.2204 43.8372 6.75027L41.1806 34.5351H44.8138ZM51.0836 34.5351L57.6834 14.4292C55.7569 13.6989 53.8713 12.8653 52.0346 11.932L47.2843 34.5351H51.0836ZM58.6511 34.5351L65.359 16.7871C63.4448 16.33 61.6388 15.806 59.9353 15.2352L53.602 34.534L58.6511 34.5351ZM65.0569 34.0546L74 15.9086C71.9766 16.5972 69.9037 17.1308 67.7993 17.505L60.6789 34.5351L65.0569 34.0546ZM36.9989 34.5351H38.7336L41.5708 4.86956C39.8745 3.41752 38.3419 1.78467 37 0C35.6588 1.78524 34.1261 3.41817 32.4292 4.86956L35.2653 34.5351H36.9989ZM32.8183 34.5351L30.1628 6.75139C28.2679 8.22093 26.2702 9.55284 24.1851 10.7369L29.1862 34.5351H32.8183ZM26.7146 34.5351L21.9666 11.932C20.1295 12.8653 18.2434 13.6989 16.3166 14.4292L22.9164 34.5351H26.7146ZM13.3155 34.5351L6.20068 17.505C4.0963 17.1309 2.02342 16.5972 0 15.9086L8.94651 34.0546L13.3155 34.5351ZM20.398 34.5351L14.0669 15.2363C12.3634 15.8094 10.5541 16.3311 8.64103 16.7882L15.3512 34.5362L20.398 34.5351Z" fill="#D6AE5F"/>
</svg>
