<svg width="98" height="75" viewBox="0 0 98 75" fill="none" xmlns="http://www.w3.org/2000/svg">
<path d="M57.4264 47.7905H6.26624V50.7235H10.6657C11.7288 50.8372 12.7209 51.3115 13.4768 52.0677C14.2326 52.8238 14.7068 53.816 14.8201 54.8791C14.8201 56.6715 15.01 66.2084 14.8201 68.9703C14.575 72.5551 16.5303 74.9993 19.9521 74.9993H77.4657C80.8875 74.9993 82.8442 72.5551 82.5991 68.9703C82.4092 66.2084 82.5991 56.6715 82.5991 54.8791C82.7124 53.816 83.1866 52.8238 83.9424 52.0677C84.6983 51.3115 85.6904 50.8372 86.7535 50.7235H91.153V47.7905H57.4264Z" fill="#EFF7FF"/>
<path d="M59.1891 45.0334L65.7091 14.0008C62.9903 12.4566 60.3858 10.7193 57.9157 8.80227L54.4515 45.0334H59.1891ZM67.3649 45.0334L75.9709 18.8155C73.4588 17.8632 71 16.7762 68.6049 15.5592L62.4106 45.0334H67.3649ZM77.2328 45.0334L85.9798 21.8901C83.4838 21.2941 81.1287 20.6109 78.9075 19.8666L70.6489 45.0319L77.2328 45.0334ZM85.5858 44.4068L97.2476 20.7446C94.6091 21.6425 91.9061 22.3384 89.162 22.8263L79.8771 45.0334L85.5858 44.4068ZM48.9986 45.0334H51.2606L54.9603 6.34985C52.7484 4.45641 50.7498 2.32719 49 0C47.2511 2.32794 45.2525 4.45725 43.0398 6.34985L46.738 45.0334H48.9986ZM43.5471 45.0334L40.0843 8.80374C37.6135 10.72 35.0085 12.4568 32.2895 14.0008L38.8109 45.0334H43.5471ZM35.588 45.0334L29.3966 15.5592C27.001 16.7762 24.5417 17.8632 22.0291 18.8155L30.6351 45.0334H35.588ZM18.1157 45.0334L8.83806 22.8263C6.09397 22.3384 3.39096 21.6425 0.752441 20.7446L12.4186 44.4068L18.1157 45.0334ZM27.3512 45.0334L19.0955 19.868C16.8742 20.6152 14.5148 21.2956 12.0202 21.8916L20.7702 45.0348L27.3512 45.0334Z" fill="#BF9747"/>
</svg>
